<?xml version="1.0" encoding="UTF-8" standalone="no"?><!DOCTYPE svg PUBLIC "-//W3C//DTD SVG 1.1//EN" "http://www.w3.org/Graphics/SVG/1.1/DTD/svg11.dtd"><svg width="100%" height="100%" viewBox="0 0 434 434" version="1.1" xmlns="http://www.w3.org/2000/svg" xmlns:xlink="http://www.w3.org/1999/xlink" xml:space="preserve" xmlns:serif="http://www.serif.com/" style="fill-rule:evenodd;clip-rule:evenodd;stroke-linecap:round;stroke-linejoin:round;"><g><path d="M216.099,361.093l-0.926,-290.445c40.863,2.036 73.316,12.328 102.082,39.02c31.799,31.954 46.086,63.754 46.086,106.883c-0.051,16.241 -2.75,32.365 -7.988,47.738l-94.516,0.423l93.56,90.684c-39.327,37.522 -87.987,57.839 -138.798,57.263c-65.904,-3.862 -105.096,-26.423 -136.34,-56.414c-37.639,-36.129 -59.712,-94.107 -58.368,-143.419c-0.345,-49.044 20.628,-96.091 57.097,-135.726l87.142,87.757l0,-138.26c15.961,-3.688 32.279,-5.62 48.66,-5.761c51.924,-0.269 98.472,18.272 137.146,53.912c40.825,42.976 60.364,83.663 61.348,139.549c0.326,18.519 -2.22,35.005 -6.222,51.621" style="fill:none;fill-rule:nonzero;"/><clipPath id="_clip1"><path d="M216.099,361.093l-0.926,-290.445c40.863,2.036 73.316,12.328 102.082,39.02c31.799,31.954 46.086,63.754 46.086,106.883c-0.051,16.241 -2.75,32.365 -7.988,47.738l-94.516,0.423l93.56,90.684c-39.327,37.522 -87.987,57.839 -138.798,57.263c-65.904,-3.862 -105.096,-26.423 -136.34,-56.414c-37.639,-36.129 -59.712,-94.107 -58.368,-143.419c-0.345,-49.044 20.628,-96.091 57.097,-135.726l87.142,87.757l0,-138.26c15.961,-3.688 32.279,-5.62 48.66,-5.761c51.924,-0.269 98.472,18.272 137.146,53.912c40.825,42.976 60.364,83.663 61.348,139.549c0.326,18.519 -2.22,35.005 -6.222,51.621" clip-rule="nonzero"/></clipPath><g clip-path="url(#_clip1)"><g id="Layer1"></g></g><path d="M216.099,361.093l-0.926,-290.445c40.863,2.036 73.316,12.328 102.082,39.02c31.799,31.954 46.086,63.754 46.086,106.883c-0.051,16.241 -2.75,32.365 -7.988,47.738l-94.516,0.423l93.56,90.684c-39.327,37.522 -87.987,57.839 -138.798,57.263c-65.904,-3.862 -105.096,-26.423 -136.34,-56.414c-37.639,-36.129 -59.712,-94.107 -58.368,-143.419c-0.345,-49.044 20.628,-96.091 57.097,-135.726l87.142,87.757l0,-138.26c15.961,-3.688 32.279,-5.62 48.66,-5.761c51.924,-0.269 98.472,18.272 137.146,53.912c40.825,42.976 60.364,83.663 61.348,139.549c0.326,18.519 -2.22,35.005 -6.222,51.621" style="fill:none;fill-rule:nonzero;stroke:#000;stroke-width:41.67px;"/><path d="M214.37,361.123c-91.696,-4.514 -166.107,-94.137 -129.583,-200.14" style="fill:none;stroke:#000;stroke-width:41.67px;stroke-miterlimit:1.5;"/><path d="M85.557,161.721l79.223,73.786l0.171,27.374l-31.857,-0.18" style="fill:none;stroke:#000;stroke-width:41.67px;stroke-miterlimit:1.5;"/></g><g><g><path d="M215.492,360.486l-0.926,-290.445c40.863,2.036 73.316,12.329 102.082,39.021c31.8,31.953 46.086,63.753 46.086,106.882c-0.051,16.241 -2.749,32.365 -7.988,47.738l-94.516,0.423l93.56,90.684c-39.327,37.522 -87.987,57.839 -138.798,57.263c-65.904,-3.862 -105.096,-26.423 -136.34,-56.414c-37.638,-36.129 -59.712,-94.106 -58.367,-143.419c-0.346,-49.044 20.628,-96.091 57.096,-135.725l87.142,87.756l0,-138.26c15.962,-3.688 32.279,-5.62 48.66,-5.761c51.924,-0.268 98.472,18.272 137.146,53.912c40.826,42.976 60.364,83.663 61.348,139.549c0.326,18.519 -2.22,35.005 -6.221,51.621" style="fill:none;fill-rule:nonzero;"/><clipPath id="_clip2"><path d="M215.492,360.486l-0.926,-290.445c40.863,2.036 73.316,12.329 102.082,39.021c31.8,31.953 46.086,63.753 46.086,106.882c-0.051,16.241 -2.749,32.365 -7.988,47.738l-94.516,0.423l93.56,90.684c-39.327,37.522 -87.987,57.839 -138.798,57.263c-65.904,-3.862 -105.096,-26.423 -136.34,-56.414c-37.638,-36.129 -59.712,-94.106 -58.367,-143.419c-0.346,-49.044 20.628,-96.091 57.096,-135.725l87.142,87.756l0,-138.26c15.962,-3.688 32.279,-5.62 48.66,-5.761c51.924,-0.268 98.472,18.272 137.146,53.912c40.826,42.976 60.364,83.663 61.348,139.549c0.326,18.519 -2.22,35.005 -6.221,51.621" clip-rule="nonzero"/></clipPath><g clip-path="url(#_clip2)"><g id="Layer11" serif:id="Layer1"></g></g><path d="M215.492,360.486l-0.926,-290.445c40.863,2.036 73.316,12.329 102.082,39.021c31.8,31.953 46.086,63.753 46.086,106.882c-0.051,16.241 -2.749,32.365 -7.988,47.738l-94.516,0.423l93.56,90.684c-39.327,37.522 -87.987,57.839 -138.798,57.263c-65.904,-3.862 -105.096,-26.423 -136.34,-56.414c-37.638,-36.129 -59.712,-94.106 -58.367,-143.419c-0.346,-49.044 20.628,-96.091 57.096,-135.725l87.142,87.756l0,-138.26c15.962,-3.688 32.279,-5.62 48.66,-5.761c51.924,-0.268 98.472,18.272 137.146,53.912c40.826,42.976 60.364,83.663 61.348,139.549c0.326,18.519 -2.22,35.005 -6.221,51.621" style="fill:none;fill-rule:nonzero;stroke:#fff;stroke-width:17.5px;"/><path d="M213.763,360.517c-91.696,-4.515 -166.107,-94.138 -129.582,-200.141" style="fill:none;stroke:#fff;stroke-width:17.5px;stroke-miterlimit:1.5;"/><path d="M84.95,161.114l79.223,73.786l0.171,27.374l-31.857,-0.18" style="fill:none;stroke:#fff;stroke-width:17.5px;stroke-miterlimit:1.5;"/></g></g></svg>