<?xml version="1.0" encoding="UTF-8" standalone="no"?><!DOCTYPE svg PUBLIC "-//W3C//DTD SVG 1.1//EN" "http://www.w3.org/Graphics/SVG/1.1/DTD/svg11.dtd"><svg width="100%" height="100%" viewBox="0 0 409 410" version="1.1" xmlns="http://www.w3.org/2000/svg" xmlns:xlink="http://www.w3.org/1999/xlink" xml:space="preserve" xmlns:serif="http://www.serif.com/" style="fill-rule:evenodd;clip-rule:evenodd;stroke-linecap:round;stroke-linejoin:round;"><path d="M204.015,349.009l-0.926,-290.444c40.864,2.035 73.316,12.328 102.082,39.02c31.8,31.953 46.087,63.753 46.087,106.883c-0.052,16.241 -2.75,32.365 -7.988,47.738l-94.517,0.422l93.561,90.685c-39.327,37.522 -87.987,57.839 -138.798,57.263c-65.905,-3.862 -105.097,-26.423 -136.34,-56.414c-37.639,-36.13 -59.712,-94.107 -58.368,-143.42c-0.346,-49.044 20.628,-96.091 57.096,-135.725l87.143,87.757l-0,-138.26c15.961,-3.689 32.278,-5.62 48.66,-5.761c51.924,-0.269 98.471,18.271 137.146,53.912c40.825,42.975 60.364,83.663 61.347,139.548c0.326,18.52 -2.219,35.005 -6.221,51.621" style="fill:none;fill-rule:nonzero;"/><clipPath id="_clip1"><path d="M204.015,349.009l-0.926,-290.444c40.864,2.035 73.316,12.328 102.082,39.02c31.8,31.953 46.087,63.753 46.087,106.883c-0.052,16.241 -2.75,32.365 -7.988,47.738l-94.517,0.422l93.561,90.685c-39.327,37.522 -87.987,57.839 -138.798,57.263c-65.905,-3.862 -105.097,-26.423 -136.34,-56.414c-37.639,-36.13 -59.712,-94.107 -58.368,-143.42c-0.346,-49.044 20.628,-96.091 57.096,-135.725l87.143,87.757l-0,-138.26c15.961,-3.689 32.278,-5.62 48.66,-5.761c51.924,-0.269 98.471,18.271 137.146,53.912c40.825,42.975 60.364,83.663 61.347,139.548c0.326,18.52 -2.219,35.005 -6.221,51.621" clip-rule="nonzero"/></clipPath><g clip-path="url(#_clip1)"><g id="Layer1"></g></g><path d="M204.015,349.009l-0.926,-290.444c40.864,2.035 73.316,12.328 102.082,39.02c31.8,31.953 46.087,63.753 46.087,106.883c-0.052,16.241 -2.75,32.365 -7.988,47.738l-94.517,0.422l93.561,90.685c-39.327,37.522 -87.987,57.839 -138.798,57.263c-65.905,-3.862 -105.097,-26.423 -136.34,-56.414c-37.639,-36.13 -59.712,-94.107 -58.368,-143.42c-0.346,-49.044 20.628,-96.091 57.096,-135.725l87.143,87.757l-0,-138.26c15.961,-3.689 32.278,-5.62 48.66,-5.761c51.924,-0.269 98.471,18.271 137.146,53.912c40.825,42.975 60.364,83.663 61.347,139.548c0.326,18.52 -2.219,35.005 -6.221,51.621" style="fill:none;fill-rule:nonzero;stroke:#000;stroke-width:17.5px;"/><path d="M202.287,349.04c-91.697,-4.515 -166.107,-94.137 -129.583,-200.141" style="fill:none;stroke:#000;stroke-width:17.5px;stroke-miterlimit:1.5;"/><path d="M73.473,149.637l79.224,73.787l0.171,27.374l-31.857,-0.18" style="fill:none;stroke:#000;stroke-width:17.5px;stroke-miterlimit:1.5;"/></svg>