<?xml version="1.0" encoding="UTF-8" standalone="no"?><!DOCTYPE svg PUBLIC "-//W3C//DTD SVG 1.1//EN" "http://www.w3.org/Graphics/SVG/1.1/DTD/svg11.dtd"><svg width="100%" height="100%" viewBox="0 0 425 426" version="1.1" xmlns="http://www.w3.org/2000/svg" xmlns:xlink="http://www.w3.org/1999/xlink" xml:space="preserve" xmlns:serif="http://www.serif.com/" style="fill-rule:evenodd;clip-rule:evenodd;stroke-linecap:round;stroke-linejoin:round;"><g><path d="M211.932,356.926l-0.926,-290.444c40.863,2.035 73.316,12.328 102.082,39.02c31.8,31.953 46.087,63.753 46.087,106.882c-0.052,16.241 -2.75,32.366 -7.989,47.738l-94.516,0.423l93.561,90.684c-39.328,37.523 -87.988,57.839 -138.798,57.263c-65.905,-3.862 -105.097,-26.422 -136.341,-56.414c-37.638,-36.129 -59.711,-94.106 -58.367,-143.419c-0.346,-49.044 20.628,-96.091 57.096,-135.725l87.142,87.756l0,-138.26c15.962,-3.688 32.279,-5.62 48.66,-5.76c51.925,-0.269 98.472,18.271 137.147,53.911c40.825,42.976 60.364,83.663 61.347,139.549c0.326,18.519 -2.22,35.005 -6.221,51.621" style="fill:none;fill-rule:nonzero;"/><clipPath id="_clip1"><path d="M211.932,356.926l-0.926,-290.444c40.863,2.035 73.316,12.328 102.082,39.02c31.8,31.953 46.087,63.753 46.087,106.882c-0.052,16.241 -2.75,32.366 -7.989,47.738l-94.516,0.423l93.561,90.684c-39.328,37.523 -87.988,57.839 -138.798,57.263c-65.905,-3.862 -105.097,-26.422 -136.341,-56.414c-37.638,-36.129 -59.711,-94.106 -58.367,-143.419c-0.346,-49.044 20.628,-96.091 57.096,-135.725l87.142,87.756l0,-138.26c15.962,-3.688 32.279,-5.62 48.66,-5.76c51.925,-0.269 98.472,18.271 137.147,53.911c40.825,42.976 60.364,83.663 61.347,139.549c0.326,18.519 -2.22,35.005 -6.221,51.621" clip-rule="nonzero"/></clipPath><g clip-path="url(#_clip1)"><g id="Layer1"></g></g><path d="M211.932,356.926l-0.926,-290.444c40.863,2.035 73.316,12.328 102.082,39.02c31.8,31.953 46.087,63.753 46.087,106.882c-0.052,16.241 -2.75,32.366 -7.989,47.738l-94.516,0.423l93.561,90.684c-39.328,37.523 -87.988,57.839 -138.798,57.263c-65.905,-3.862 -105.097,-26.422 -136.341,-56.414c-37.638,-36.129 -59.711,-94.106 -58.367,-143.419c-0.346,-49.044 20.628,-96.091 57.096,-135.725l87.142,87.756l0,-138.26c15.962,-3.688 32.279,-5.62 48.66,-5.76c51.925,-0.269 98.472,18.271 137.147,53.911c40.825,42.976 60.364,83.663 61.347,139.549c0.326,18.519 -2.22,35.005 -6.221,51.621" style="fill:none;fill-rule:nonzero;stroke:#000;stroke-width:33.33px;"/><path d="M210.203,356.957c-91.696,-4.515 -166.107,-94.138 -129.582,-200.141" style="fill:none;stroke:#000;stroke-width:33.33px;stroke-miterlimit:1.5;"/><path d="M81.39,157.554l79.223,73.786l0.171,27.374l-31.857,-0.18" style="fill:none;stroke:#000;stroke-width:33.33px;stroke-miterlimit:1.5;"/></g><g><g><path d="M211.325,356.319l-0.926,-290.444c40.864,2.035 73.316,12.328 102.082,39.02c31.8,31.953 46.087,63.753 46.087,106.883c-0.052,16.24 -2.75,32.365 -7.989,47.738l-94.516,0.422l93.561,90.684c-39.328,37.523 -87.988,57.84 -138.798,57.263c-65.905,-3.862 -105.097,-26.422 -136.341,-56.413c-37.638,-36.13 -59.711,-94.107 -58.367,-143.42c-0.346,-49.044 20.628,-96.091 57.096,-135.725l87.143,87.757l-0,-138.26c15.961,-3.689 32.278,-5.62 48.659,-5.761c51.925,-0.269 98.472,18.271 137.147,53.911c40.825,42.976 60.364,83.664 61.347,139.549c0.326,18.52 -2.219,35.005 -6.221,51.621" style="fill:none;fill-rule:nonzero;"/><clipPath id="_clip2"><path d="M211.325,356.319l-0.926,-290.444c40.864,2.035 73.316,12.328 102.082,39.02c31.8,31.953 46.087,63.753 46.087,106.883c-0.052,16.24 -2.75,32.365 -7.989,47.738l-94.516,0.422l93.561,90.684c-39.328,37.523 -87.988,57.84 -138.798,57.263c-65.905,-3.862 -105.097,-26.422 -136.341,-56.413c-37.638,-36.13 -59.711,-94.107 -58.367,-143.42c-0.346,-49.044 20.628,-96.091 57.096,-135.725l87.143,87.757l-0,-138.26c15.961,-3.689 32.278,-5.62 48.659,-5.761c51.925,-0.269 98.472,18.271 137.147,53.911c40.825,42.976 60.364,83.664 61.347,139.549c0.326,18.52 -2.219,35.005 -6.221,51.621" clip-rule="nonzero"/></clipPath><g clip-path="url(#_clip2)"><g id="Layer11" serif:id="Layer1"></g></g><path d="M211.325,356.319l-0.926,-290.444c40.864,2.035 73.316,12.328 102.082,39.02c31.8,31.953 46.087,63.753 46.087,106.883c-0.052,16.24 -2.75,32.365 -7.989,47.738l-94.516,0.422l93.561,90.684c-39.328,37.523 -87.988,57.84 -138.798,57.263c-65.905,-3.862 -105.097,-26.422 -136.341,-56.413c-37.638,-36.13 -59.711,-94.107 -58.367,-143.42c-0.346,-49.044 20.628,-96.091 57.096,-135.725l87.143,87.757l-0,-138.26c15.961,-3.689 32.278,-5.62 48.659,-5.761c51.925,-0.269 98.472,18.271 137.147,53.911c40.825,42.976 60.364,83.664 61.347,139.549c0.326,18.52 -2.219,35.005 -6.221,51.621" style="fill:none;fill-rule:nonzero;stroke:#0025ff;stroke-width:20.83px;"/><path d="M209.596,356.35c-91.696,-4.515 -166.106,-94.137 -129.582,-200.141" style="fill:none;stroke:#0025ff;stroke-width:20.83px;stroke-miterlimit:1.5;"/><path d="M80.783,156.947l79.224,73.787l0.17,27.374l-31.857,-0.181" style="fill:none;stroke:#0025ff;stroke-width:20.83px;stroke-miterlimit:1.5;"/><path d="M211.325,356.319l-0.926,-290.444c40.864,2.035 73.316,12.328 102.082,39.02c31.8,31.953 46.087,63.753 46.087,106.883c-0.052,16.24 -2.75,32.365 -7.989,47.738l-94.516,0.422l93.561,90.684c-39.328,37.523 -87.988,57.84 -138.798,57.263c-65.905,-3.862 -105.097,-26.422 -136.341,-56.413c-37.638,-36.13 -59.711,-94.107 -58.367,-143.42c-0.346,-49.044 20.628,-96.091 57.096,-135.725l87.143,87.757l-0,-138.26c15.961,-3.689 32.278,-5.62 48.659,-5.761c51.925,-0.269 98.472,18.271 137.147,53.911c40.825,42.976 60.364,83.664 61.347,139.549c0.326,18.52 -2.219,35.005 -6.221,51.621" style="fill:none;fill-rule:nonzero;"/><clipPath id="_clip3"><path d="M211.325,356.319l-0.926,-290.444c40.864,2.035 73.316,12.328 102.082,39.02c31.8,31.953 46.087,63.753 46.087,106.883c-0.052,16.24 -2.75,32.365 -7.989,47.738l-94.516,0.422l93.561,90.684c-39.328,37.523 -87.988,57.84 -138.798,57.263c-65.905,-3.862 -105.097,-26.422 -136.341,-56.413c-37.638,-36.13 -59.711,-94.107 -58.367,-143.42c-0.346,-49.044 20.628,-96.091 57.096,-135.725l87.143,87.757l-0,-138.26c15.961,-3.689 32.278,-5.62 48.659,-5.761c51.925,-0.269 98.472,18.271 137.147,53.911c40.825,42.976 60.364,83.664 61.347,139.549c0.326,18.52 -2.219,35.005 -6.221,51.621" clip-rule="nonzero"/></clipPath><g clip-path="url(#_clip3)"><g id="Layer12" serif:id="Layer1"></g></g><path d="M211.325,356.319l-0.926,-290.444c40.864,2.035 73.316,12.328 102.082,39.02c31.8,31.953 46.087,63.753 46.087,106.883c-0.052,16.24 -2.75,32.365 -7.989,47.738l-94.516,0.422l93.561,90.684c-39.328,37.523 -87.988,57.84 -138.798,57.263c-65.905,-3.862 -105.097,-26.422 -136.341,-56.413c-37.638,-36.13 -59.711,-94.107 -58.367,-143.42c-0.346,-49.044 20.628,-96.091 57.096,-135.725l87.143,87.757l-0,-138.26c15.961,-3.689 32.278,-5.62 48.659,-5.761c51.925,-0.269 98.472,18.271 137.147,53.911c40.825,42.976 60.364,83.664 61.347,139.549c0.326,18.52 -2.219,35.005 -6.221,51.621" style="fill:none;fill-rule:nonzero;stroke:#fff;stroke-width:12.5px;"/><path d="M209.596,356.35c-91.696,-4.515 -166.106,-94.137 -129.582,-200.141" style="fill:none;stroke:#fff;stroke-width:12.5px;stroke-miterlimit:1.5;"/><path d="M80.783,156.947l79.224,73.787l0.17,27.374l-31.857,-0.181" style="fill:none;stroke:#fff;stroke-width:12.5px;stroke-miterlimit:1.5;"/></g></g></svg>