<?xml version="1.0" encoding="UTF-8" standalone="no"?>
<!DOCTYPE svg PUBLIC "-//W3C//DTD SVG 1.1//EN" "http://www.w3.org/Graphics/SVG/1.1/DTD/svg11.dtd">
<svg width="100%" height="100%" viewBox="0 0 47 28" version="1.1" xmlns="http://www.w3.org/2000/svg" xmlns:xlink="http://www.w3.org/1999/xlink" xml:space="preserve" xmlns:serif="http://www.serif.com/" style="fill-rule:evenodd;clip-rule:evenodd;stroke-linecap:round;stroke-linejoin:round;stroke-miterlimit:1.5;">
    <g transform="matrix(1,0,0,1,-429.275,-37.9932)">
        <g>
            <g transform="matrix(0.999562,0.0295794,-0.0295794,0.999562,101.726,-6.63634)">
                <path d="M348.304,50.172L332.962,59.29" style="fill:none;stroke:black;stroke-width:1.5px;"/>
            </g>
            <g transform="matrix(0.645092,0.764105,-0.764105,0.645092,286.15,-237.65)">
                <path d="M349.52,51.581L332.711,57.789" style="fill:none;stroke:black;stroke-width:1.5px;"/>
            </g>
            <g id="Air-Play" serif:id="Air Play" transform="matrix(-2,-2.44929e-16,2.44929e-16,-2,538.779,282.762)">
                <path d="M44.114,114.328L53.056,120.083C53.3,120.327 52.901,120.8 52.556,120.8C52.556,120.8 44.492,117.636 43.299,117.168C43.205,117.131 43.101,117.132 43.007,117.169C41.814,117.641 33.741,120.841 33.741,120.841C33.396,120.841 33.065,120.356 33.308,120.112L42.082,114.352C42.464,113.97 43.963,114.177 44.114,114.328ZM52.883,108.386C54.155,108.431 54.752,109.205 54.752,110.256L54.752,120.604C54.708,121.809 54.244,122.384 52.883,122.384L42.799,122.384L42.799,121.477L52.883,121.477C53.364,121.477 53.755,121.085 53.755,120.604L53.755,110.256C53.755,109.775 53.364,109.383 52.883,109.383L33.468,109.383C32.987,109.383 32.596,109.775 32.596,110.256L32.596,120.604C32.596,121.085 32.987,121.477 33.468,121.477L42.799,121.477L42.782,122.384L33.468,122.384C32.307,122.384 31.599,121.765 31.599,120.604L31.599,110.256C31.577,109.072 32.24,108.386 33.468,108.386L52.883,108.386Z"/>
            </g>
        </g>
    </g>
</svg>
