<?xml version="1.0" encoding="UTF-8" standalone="no"?>
<!DOCTYPE svg PUBLIC "-//W3C//DTD SVG 1.1//EN" "http://www.w3.org/Graphics/SVG/1.1/DTD/svg11.dtd">
<svg width="100%" height="100%" viewBox="0 0 74 46" version="1.1" xmlns="http://www.w3.org/2000/svg" xmlns:xlink="http://www.w3.org/1999/xlink" xml:space="preserve" xmlns:serif="http://www.serif.com/" style="fill-rule:evenodd;clip-rule:evenodd;stroke-linejoin:round;stroke-miterlimit:2;">
    <g transform="matrix(1,0,0,1,-511.682,-32.6018)">
        <g transform="matrix(1,0,0,1,-114.456,1.2242)">
            <g id="Planner" transform="matrix(0.649539,-0.375011,0.389766,0.675095,-2792.44,1676.63)">
                <path d="M5072.5,381.993C5074.8,382.08 5076.78,384.024 5076.86,386.382C5076.99,398.083 5076.87,409.784 5076.87,421.485C5076.84,423.826 5074.94,425.894 5072.5,425.988C5060.45,426.14 5048.4,425.989 5036.35,425.989C5034.03,425.96 5031.96,424.016 5031.87,421.598C5031.74,409.898 5031.87,398.196 5031.87,386.495C5031.89,384.152 5033.81,382.084 5036.23,381.993C5048.32,381.84 5060.41,381.839 5072.5,381.993ZM5053.87,411.49C5055.8,411.49 5057.37,409.923 5057.37,407.99C5057.37,406.057 5055.8,404.49 5053.87,404.49C5051.93,404.49 5050.37,406.057 5050.37,407.99C5050.37,409.923 5051.93,411.49 5053.87,411.49ZM5053.87,400.49C5054.69,400.49 5055.37,399.819 5055.37,398.99C5055.37,398.162 5054.69,397.49 5053.87,397.49C5053.04,397.49 5052.37,398.162 5052.37,398.99C5052.37,399.819 5053.04,400.49 5053.87,400.49ZM5060.87,400.49C5061.69,400.49 5062.37,399.819 5062.37,398.99C5062.37,398.162 5061.69,397.49 5060.87,397.49C5060.04,397.49 5059.37,398.162 5059.37,398.99C5059.37,399.819 5060.04,400.49 5060.87,400.49ZM5046.87,400.49C5047.69,400.49 5048.37,399.819 5048.37,398.99C5048.37,398.162 5047.69,397.49 5046.87,397.49C5046.04,397.49 5045.37,398.162 5045.37,398.99C5045.37,399.819 5046.04,400.49 5046.87,400.49ZM5075.92,392.491C5075.9,390.462 5075.89,388.434 5075.86,386.406C5075.8,384.62 5074.28,383.061 5072.47,382.992C5060.43,382.839 5048.39,382.991 5036.35,382.991C5034.53,383.014 5032.94,384.574 5032.87,386.406C5032.85,388.434 5032.83,390.462 5032.82,392.491L5075.92,392.491Z"/>
            </g>
            <g transform="matrix(0.660624,0.381412,-0.386804,0.669964,224.488,-261.703)">
                <g id="Planner1" serif:id="Planner" transform="matrix(1,0,0,1,-4333.82,-343.101)">
                    <path d="M5072.5,381.993C5074.8,382.08 5076.78,384.024 5076.86,386.382C5076.99,398.083 5076.87,409.784 5076.87,421.485C5076.84,423.826 5074.94,425.894 5072.5,425.988C5060.45,426.14 5048.4,425.989 5036.35,425.989C5034.03,425.96 5031.96,424.016 5031.87,421.598C5031.74,409.898 5031.87,398.196 5031.87,386.495C5031.89,384.152 5033.81,382.084 5036.23,381.993C5048.32,381.84 5060.41,381.839 5072.5,381.993ZM5053.87,411.49C5055.8,411.49 5057.37,409.923 5057.37,407.99C5057.37,406.057 5055.8,404.49 5053.87,404.49C5051.93,404.49 5050.37,406.057 5050.37,407.99C5050.37,409.923 5051.93,411.49 5053.87,411.49ZM5053.87,400.49C5054.69,400.49 5055.37,399.819 5055.37,398.99C5055.37,398.162 5054.69,397.49 5053.87,397.49C5053.04,397.49 5052.37,398.162 5052.37,398.99C5052.37,399.819 5053.04,400.49 5053.87,400.49ZM5060.87,400.49C5061.69,400.49 5062.37,399.819 5062.37,398.99C5062.37,398.162 5061.69,397.49 5060.87,397.49C5060.04,397.49 5059.37,398.162 5059.37,398.99C5059.37,399.819 5060.04,400.49 5060.87,400.49ZM5046.87,400.49C5047.69,400.49 5048.37,399.819 5048.37,398.99C5048.37,398.162 5047.69,397.49 5046.87,397.49C5046.04,397.49 5045.37,398.162 5045.37,398.99C5045.37,399.819 5046.04,400.49 5046.87,400.49Z" style="fill:none;stroke:black;stroke-width:1.3px;"/>
                </g>
                <g transform="matrix(0.866025,-0.5,0.5,0.866025,118.674,353.809)">
                    <path d="M657.669,20.548C659.063,18.794 661.638,18.264 663.4,19.578L694.864,37.781C695.958,38.775 696.575,40.245 696.442,42.465L692.78,48.982L654.042,26.534L657.669,20.548Z"/>
                </g>
            </g>
        </g>
    </g>
</svg>
