<?xml version="1.0" encoding="UTF-8" standalone="no"?>
<!DOCTYPE svg PUBLIC "-//W3C//DTD SVG 1.1//EN" "http://www.w3.org/Graphics/SVG/1.1/DTD/svg11.dtd">
<svg width="100%" height="100%" viewBox="0 0 64 48" version="1.1" xmlns="http://www.w3.org/2000/svg" xmlns:xlink="http://www.w3.org/1999/xlink" xml:space="preserve" xmlns:serif="http://www.serif.com/" style="fill-rule:evenodd;clip-rule:evenodd;stroke-linecap:round;stroke-linejoin:round;stroke-miterlimit:1.5;">
    <g transform="matrix(1,0,0,1,-317.686,-26.0875)">
        <g>
            <g id="Literature" transform="matrix(2.5594,1.97215e-31,-3.15484e-32,1.99991,-386.148,-169.904)">
                <path d="M293.656,98C291.027,98 288.833,99.107 287.5,101.064C286.168,99.107 283.972,98 281.344,98C278.28,98 275,99.64 275,102.081L275,120.428C275,120.621 275.105,120.798 275.274,120.89C275.443,120.98 275.65,120.971 275.808,120.865C275.849,120.838 279.893,118.169 283.156,118.169C285.269,118.169 286.523,119.284 286.989,121.581C286.992,121.596 287.002,121.609 287.006,121.624C287.015,121.653 287.025,121.679 287.038,121.706C287.054,121.736 287.07,121.763 287.09,121.789C287.107,121.811 287.124,121.831 287.144,121.85C287.168,121.874 287.194,121.893 287.222,121.911C287.245,121.926 287.267,121.94 287.292,121.951C287.325,121.965 287.359,121.973 287.394,121.982C287.412,121.985 287.428,121.995 287.448,121.998C287.465,121.999 287.482,122 287.499,122L287.501,122C287.518,122 287.535,121.998 287.553,121.998C287.571,121.995 287.588,121.986 287.606,121.982C287.641,121.973 287.675,121.966 287.708,121.951C287.732,121.94 287.755,121.926 287.777,121.911C287.806,121.893 287.832,121.874 287.856,121.85C287.876,121.831 287.893,121.811 287.91,121.789C287.929,121.763 287.946,121.736 287.96,121.706C287.973,121.679 287.984,121.653 287.992,121.624C287.997,121.609 288.006,121.596 288.01,121.581C288.476,119.284 289.73,118.169 291.844,118.169C295.106,118.169 299.151,120.838 299.191,120.865C299.35,120.971 299.556,120.98 299.725,120.89C299.894,120.798 299.999,120.621 299.999,120.428L299.999,102.081C300,99.64 296.72,98 293.656,98ZM283.156,117.426C280.472,117.426 277.001,119.086 275.587,119.909L275.587,102.081C275.587,100.494 278.569,98.771 281.344,98.771C283.854,98.771 286.066,99.728 287.144,101.739L287.144,114.654L287.222,119.909C286.232,117.856 284.829,117.426 283.156,117.426ZM299.413,120.187C297.999,119.364 294.527,117.426 291.844,117.426C290.17,117.426 288.824,117.939 287.856,119.909L287.91,114.654L287.91,101.739C288.988,99.728 291.147,98.771 293.656,98.771C296.431,98.771 299.413,100.494 299.413,102.081L299.413,120.187Z"/>
            </g>
            <g id="Person" transform="matrix(0.564521,0,0,0.431087,43.2226,-41.2009)">
                <path d="M520.484,219.025C523.841,222.8 506.159,222.8 509.516,219.025C510.498,217.921 510.292,214.903 510,214C508.819,213.419 508.056,211.685 508,208C506.902,208.017 506.198,207.629 506,207C505.29,204.738 504.383,202.338 506,200C503.819,191.728 509,187 515,187C521,187 526.181,191.728 524,200C525.617,202.338 524.71,204.738 524,207C523.802,207.629 523.098,208.017 522,208C521.944,211.685 521.181,213.419 520,214C519.708,214.903 519.502,217.921 520.484,219.025Z"/>
            </g>
            <g transform="matrix(0.456423,-0.000867711,-0.000896974,0.653897,114.193,-48.4233)">
                <path d="M540.159,135.741C547.314,133.005 554.599,133.78 559.956,136.569" style="fill:none;stroke:black;stroke-width:3.55px;"/>
            </g>
            <g transform="matrix(0.471816,-0.000896974,-0.000896974,0.653897,105.939,-42.2088)">
                <path d="M540.159,135.741C546.441,132.697 552.705,133.557 559.45,136.691" style="fill:none;stroke:black;stroke-width:3.51px;"/>
            </g>
            <g transform="matrix(0.471816,-0.000896974,-0.000896974,0.653897,106.061,-35.819)">
                <path d="M540.159,135.741C545.717,132.993 551.965,134.275 559.788,137.057" style="fill:none;stroke:black;stroke-width:3.51px;"/>
            </g>
        </g>
    </g>
</svg>
