<?xml version="1.0" encoding="UTF-8" standalone="no"?>
<!DOCTYPE svg PUBLIC "-//W3C//DTD SVG 1.1//EN" "http://www.w3.org/Graphics/SVG/1.1/DTD/svg11.dtd">
<svg width="100%" height="100%" viewBox="0 0 47 28" version="1.1" xmlns="http://www.w3.org/2000/svg" xmlns:xlink="http://www.w3.org/1999/xlink" xml:space="preserve" xmlns:serif="http://www.serif.com/" style="fill-rule:evenodd;clip-rule:evenodd;stroke-linecap:round;stroke-linejoin:round;stroke-miterlimit:1.5;">
    <g transform="matrix(1,0,0,1,-429.275,-37.9932)">
        <g>
            <g transform="matrix(0.999562,0.0295794,-0.0295794,0.999562,101.726,-6.63634)">
                <path d="M347.643,50.618L333.277,59.138" style="fill:none;stroke:black;stroke-width:1px;"/>
            </g>
            <g transform="matrix(0.645092,0.764105,-0.764105,0.645092,286.15,-237.65)">
                <path d="M349.061,51.519L333.349,57.584" style="fill:none;stroke:black;stroke-width:1px;"/>
            </g>
            <g transform="matrix(-2,-2.44929e-16,2.44929e-16,-2,538.779,282.762)">
                <path d="M43.617,114.186L53.056,120.083C53.3,120.327 53.401,121.064 53.056,121.064C53.056,121.064 44.536,117.663 43.301,117.17C43.206,117.132 43.1,117.132 43.005,117.17C41.774,117.664 33.308,121.064 33.308,121.064C32.963,121.064 33.065,120.356 33.308,120.112L42.508,114.186C42.691,114.031 43.466,114.035 43.617,114.186ZM52.883,108.386C54.155,108.431 54.752,109.205 54.752,110.256L54.752,120.604C54.708,121.809 54.244,122.384 52.883,122.384L42.799,122.384L42.782,121.885L52.883,121.885C53.79,121.885 54.235,121.582 54.235,120.604L54.235,110.256C54.199,109.366 53.736,108.939 52.883,108.868L33.468,108.868C32.561,108.904 32.099,109.366 32.116,110.256L32.116,120.604C32.116,121.369 32.508,121.885 33.468,121.885L42.782,121.885L42.782,122.384L33.468,122.384C32.307,122.384 31.599,121.765 31.599,120.604L31.599,110.256C31.577,109.072 32.24,108.386 33.468,108.386L52.883,108.386Z"/>
            </g>
        </g>
    </g>
</svg>
