<?xml version="1.0" encoding="UTF-8" standalone="no"?>
<!DOCTYPE svg PUBLIC "-//W3C//DTD SVG 1.1//EN" "http://www.w3.org/Graphics/SVG/1.1/DTD/svg11.dtd">
<svg width="100%" height="100%" viewBox="0 0 125 125" version="1.1" xmlns="http://www.w3.org/2000/svg" xmlns:xlink="http://www.w3.org/1999/xlink" xml:space="preserve" xmlns:serif="http://www.serif.com/" style="fill-rule:evenodd;clip-rule:evenodd;stroke-linejoin:round;stroke-miterlimit:2;">
    <g transform="matrix(1,0,0,1,-275.454,-230.886)">
        <g transform="matrix(1,0,0,1,536.637,-0.0315386)">
            <g transform="matrix(0.945521,0,0,0.946937,-249.826,244.578)">
                <path d="M89.021,84.726C88.833,84.927 88.572,85.045 88.297,85.052C88.022,85.059 87.755,84.955 87.558,84.763C84.863,82.141 75.629,73.154 72.27,69.884C71.931,69.555 71.875,69.032 72.135,68.638C76.172,68.66 89.012,68.602 89.012,68.602C90.168,68.597 91.194,67.859 91.567,66.765C93.023,62.494 94.314,57.551 94.329,53.039C94.329,53.037 94.329,53.034 94.329,53.031C94.329,41.058 90.367,31.085 81.539,22.215C81.514,22.189 81.488,22.164 81.461,22.14C73.454,14.71 64.321,11.45 52.603,11.47C51.105,11.473 49.892,12.689 49.895,14.187C49.895,14.187 50.029,91.098 50.029,91.098L50.033,114.867C50.033,115.591 50.322,116.284 50.836,116.793C51.35,117.303 52.047,117.585 52.77,117.579C75.353,117.373 93.208,107.653 103.813,95.234C115.899,81.083 119.917,68.164 120.19,50.518C120.191,50.472 120.19,50.426 120.189,50.38C119.162,21.643 102.537,3.326 87.365,-5.608C70.469,-15.558 46.783,-17.636 27.408,-9.011C26.43,-8.575 25.8,-7.606 25.799,-6.535C25.799,-6.535 25.777,16.233 25.77,23.458C25.77,23.889 25.461,24.258 25.037,24.336C24.613,24.414 24.193,24.178 24.04,23.775C19.769,19.125 8.946,7.386 8.946,7.386C8.413,6.808 7.655,6.49 6.869,6.514C6.083,6.538 5.346,6.902 4.849,7.512C-3.301,17.515 -10.509,27.88 -12.002,50.296C-12.005,50.347 -12.007,50.398 -12.008,50.449C-12.363,84.912 11.714,109.663 39.981,116.437C40.788,116.631 41.64,116.444 42.292,115.93C42.944,115.416 43.325,114.632 43.326,113.802L43.404,4.847C63.872,0.567 80.568,10.02 87.924,17.701C94.673,24.751 101.292,34.971 102.175,50.448C102.081,65.934 96.667,76.416 89.021,84.726ZM86.42,91.226C86.916,91.709 87.573,92.05 88.312,92.05C89.044,92.05 89.695,91.775 90.201,91.283C100.145,81.626 107.508,69.426 107.601,50.409C107.601,50.355 107.6,50.3 107.597,50.246C106.646,33.082 99.317,21.756 91.842,13.95C83.382,5.115 63.852,-5.931 40.032,0.057C38.827,0.36 37.982,1.443 37.981,2.686C37.981,2.686 37.916,93.38 37.905,108.221C37.905,108.702 37.674,109.153 37.285,109.435C36.895,109.717 36.394,109.796 35.937,109.646C12.333,101.768 -6.848,80.057 -6.585,50.596C-5.309,31.636 0.37,21.977 7.097,13.383C7.097,13.383 26.48,34.405 26.48,34.405C27.237,35.226 28.419,35.499 29.459,35.093C30.5,34.687 31.185,33.686 31.186,32.569L31.222,-4.74C48.683,-11.846 69.578,-9.788 84.613,-0.934C98.551,7.274 113.792,24.111 114.765,50.492C114.504,66.752 110.825,78.671 99.688,91.711C90.886,102.018 76.618,110.222 58.651,111.86C57.834,111.93 57.024,111.654 56.42,111.1C55.815,110.546 55.471,109.765 55.471,108.945C55.456,103.095 55.453,91.095 55.453,91.095C55.453,91.095 55.346,29.554 55.327,18.612C55.326,18.179 55.507,17.766 55.826,17.472C56.145,17.179 56.573,17.032 57.005,17.068C65.134,17.776 71.789,20.586 77.715,26.064C85.436,33.838 88.903,42.558 88.904,53.026C88.893,56.341 88.054,59.914 87.031,63.186C87.031,63.186 64.378,63.288 64.378,63.288C63.276,63.293 62.287,63.963 61.875,64.985C61.463,66.006 61.709,67.175 62.498,67.944L86.42,91.226Z" style="fill:url(#_Linear1);"/>
            </g>
        </g>
    </g>
    <defs>
        <linearGradient id="_Linear1" x1="0" y1="0" x2="1" y2="0" gradientUnits="userSpaceOnUse" gradientTransform="matrix(1.25609,-150.032,150.257,1.25421,47.6011,129.607)"><stop offset="0" style="stop-color:rgb(89,218,255);stop-opacity:1"/><stop offset="0.11" style="stop-color:rgb(55,0,122);stop-opacity:1"/><stop offset="0.23" style="stop-color:rgb(0,58,244);stop-opacity:1"/><stop offset="0.3" style="stop-color:rgb(75,193,253);stop-opacity:1"/><stop offset="0.33" style="stop-color:rgb(255,11,95);stop-opacity:1"/><stop offset="0.34" style="stop-color:rgb(255,188,100);stop-opacity:1"/><stop offset="0.37" style="stop-color:rgb(255,179,44);stop-opacity:1"/><stop offset="0.64" style="stop-color:rgb(255,33,104);stop-opacity:1"/><stop offset="0.74" style="stop-color:rgb(127,9,125);stop-opacity:1"/><stop offset="0.86" style="stop-color:rgb(90,2,131);stop-opacity:1"/><stop offset="0.93" style="stop-color:rgb(80,0,133);stop-opacity:1"/><stop offset="1" style="stop-color:rgb(11,195,255);stop-opacity:1"/></linearGradient>
    </defs>
</svg>
