<?xml version="1.0" encoding="UTF-8" standalone="no"?>
<!DOCTYPE svg PUBLIC "-//W3C//DTD SVG 1.1//EN" "http://www.w3.org/Graphics/SVG/1.1/DTD/svg11.dtd">
<svg width="100%" height="100%" viewBox="0 0 122 122" version="1.1" xmlns="http://www.w3.org/2000/svg" xmlns:xlink="http://www.w3.org/1999/xlink" xml:space="preserve" xmlns:serif="http://www.serif.com/" style="fill-rule:evenodd;clip-rule:evenodd;stroke-linejoin:round;stroke-miterlimit:2;">
    <g transform="matrix(1,0,0,1,-43.6875,-233.66)">
        <g transform="matrix(1,0,0,1,536.637,-0.0315386)">
            <g transform="matrix(0.961747,0,0,0.961747,-484.006,244.967)">
                <path d="M52.741,91.096C52.741,91.096 52.632,28.674 52.611,16.3C52.61,15.733 52.839,15.191 53.246,14.797C53.653,14.403 54.203,14.192 54.769,14.211C64.705,14.583 72.626,17.641 79.616,24.128C87.896,32.448 91.616,41.801 91.616,53.031C91.607,56.147 90.931,59.479 90.031,62.618C89.48,64.549 87.719,65.883 85.711,65.892C82.094,65.921 76.172,65.947 71.486,65.968C70.306,65.974 69.246,66.691 68.804,67.785C68.362,68.879 68.625,70.131 69.469,70.955C74.476,75.84 81.922,83.104 85.784,86.872C86.466,87.538 87.389,87.9 88.342,87.878C89.295,87.856 90.199,87.451 90.85,86.754C99.011,77.957 104.808,66.857 104.889,50.396C103.983,34.048 97.002,23.261 89.883,15.826C82.097,7.695 64.42,-2.364 42.742,2.214C41.55,2.472 40.699,3.526 40.698,4.746C40.683,17.465 40.634,85.545 40.618,107.189C40.617,108.792 39.844,110.296 38.54,111.229C37.237,112.162 35.564,112.41 34.046,111.894C9.864,103.356 -9.609,80.851 -9.296,50.476C-8.047,31.726 -2.65,21.721 3.888,13.102C4.636,12.129 5.775,11.535 7.001,11.481C8.227,11.426 9.415,11.915 10.247,12.817C13.702,16.546 19.154,22.458 23.196,26.843C24.046,27.765 25.374,28.071 26.542,27.616C27.71,27.16 28.48,26.035 28.481,24.781C28.49,15.751 28.504,1.39 28.509,-4.199C28.51,-5.635 29.382,-6.927 30.713,-7.465C48.857,-14.634 70.427,-12.436 85.989,-3.271C100.551,5.304 116.492,22.894 117.478,50.476C117.216,67.441 113.37,79.868 101.751,93.473C92.341,104.491 76.966,113.254 57.572,114.67C56.326,114.755 55.1,114.32 54.188,113.467C53.275,112.615 52.757,111.422 52.756,110.174C52.743,103.247 52.741,91.096 52.741,91.096Z" style="fill:url(#_Linear1);fill-rule:nonzero;"/>
                <clipPath id="_clip2">
                    <path d="M52.741,91.096C52.741,91.096 52.632,28.674 52.611,16.3C52.61,15.733 52.839,15.191 53.246,14.797C53.653,14.403 54.203,14.192 54.769,14.211C64.705,14.583 72.626,17.641 79.616,24.128C87.896,32.448 91.616,41.801 91.616,53.031C91.607,56.147 90.931,59.479 90.031,62.618C89.48,64.549 87.719,65.883 85.711,65.892C82.094,65.921 76.172,65.947 71.486,65.968C70.306,65.974 69.246,66.691 68.804,67.785C68.362,68.879 68.625,70.131 69.469,70.955C74.476,75.84 81.922,83.104 85.784,86.872C86.466,87.538 87.389,87.9 88.342,87.878C89.295,87.856 90.199,87.451 90.85,86.754C99.011,77.957 104.808,66.857 104.889,50.396C103.983,34.048 97.002,23.261 89.883,15.826C82.097,7.695 64.42,-2.364 42.742,2.214C41.55,2.472 40.699,3.526 40.698,4.746C40.683,17.465 40.634,85.545 40.618,107.189C40.617,108.792 39.844,110.296 38.54,111.229C37.237,112.162 35.564,112.41 34.046,111.894C9.864,103.356 -9.609,80.851 -9.296,50.476C-8.047,31.726 -2.65,21.721 3.888,13.102C4.636,12.129 5.775,11.535 7.001,11.481C8.227,11.426 9.415,11.915 10.247,12.817C13.702,16.546 19.154,22.458 23.196,26.843C24.046,27.765 25.374,28.071 26.542,27.616C27.71,27.16 28.48,26.035 28.481,24.781C28.49,15.751 28.504,1.39 28.509,-4.199C28.51,-5.635 29.382,-6.927 30.713,-7.465C48.857,-14.634 70.427,-12.436 85.989,-3.271C100.551,5.304 116.492,22.894 117.478,50.476C117.216,67.441 113.37,79.868 101.751,93.473C92.341,104.491 76.966,113.254 57.572,114.67C56.326,114.755 55.1,114.32 54.188,113.467C53.275,112.615 52.757,111.422 52.756,110.174C52.743,103.247 52.741,91.096 52.741,91.096Z" clip-rule="nonzero"/>
                </clipPath>
                <g clip-path="url(#_clip2)">
                    <g id="Layer1">
                    </g>
                </g>
            </g>
        </g>
    </g>
    <defs>
        <linearGradient id="_Linear1" x1="0" y1="0" x2="1" y2="0" gradientUnits="userSpaceOnUse" gradientTransform="matrix(-0.504314,-181.114,181.114,-0.504314,52.9853,148.589)"><stop offset="0" style="stop-color:rgb(89,218,255);stop-opacity:1"/><stop offset="0.2" style="stop-color:rgb(55,0,122);stop-opacity:1"/><stop offset="0.3" style="stop-color:rgb(0,58,244);stop-opacity:1"/><stop offset="0.34" style="stop-color:rgb(85,195,241);stop-opacity:1"/><stop offset="0.36" style="stop-color:rgb(255,11,95);stop-opacity:1"/><stop offset="0.37" style="stop-color:rgb(255,188,100);stop-opacity:1"/><stop offset="0.43" style="stop-color:rgb(255,179,44);stop-opacity:1"/><stop offset="0.63" style="stop-color:rgb(255,33,104);stop-opacity:1"/><stop offset="0.82" style="stop-color:rgb(80,0,133);stop-opacity:1"/><stop offset="0.86" style="stop-color:rgb(73,18,144);stop-opacity:1"/><stop offset="0.93" style="stop-color:rgb(17,180,245);stop-opacity:1"/><stop offset="1" style="stop-color:rgb(11,195,255);stop-opacity:1"/></linearGradient>
    </defs>
</svg>
