<?xml version="1.0" encoding="UTF-8" standalone="no"?>
<!DOCTYPE svg PUBLIC "-//W3C//DTD SVG 1.1//EN" "http://www.w3.org/Graphics/SVG/1.1/DTD/svg11.dtd">
<svg width="100%" height="100%" viewBox="0 0 117 117" version="1.1" xmlns="http://www.w3.org/2000/svg" xmlns:xlink="http://www.w3.org/1999/xlink" xml:space="preserve" xmlns:serif="http://www.serif.com/" style="fill-rule:evenodd;clip-rule:evenodd;stroke-linejoin:round;stroke-miterlimit:2;">
    <g transform="matrix(1,0,0,1,-38.1462,-578.358)">
        <g transform="matrix(1,0,0,1,536.637,-0.0315386)">
            <g transform="matrix(0.921734,0,0,0.921734,-489.919,589.196)">
                <path d="M52.741,91.096C52.741,91.096 52.631,27.988 52.611,16.101C52.61,15.588 52.817,15.097 53.184,14.74C53.552,14.383 54.049,14.19 54.561,14.206C64.595,14.541 72.577,17.596 79.616,24.128C87.896,32.448 91.616,41.801 91.616,53.031C91.605,56.512 90.764,60.263 89.706,63.713C89.307,65.006 88.115,65.889 86.762,65.895C83.031,65.917 75.426,65.951 70.124,65.974C69.171,65.979 68.315,66.559 67.957,67.443C67.6,68.326 67.812,69.339 68.495,70.004C73.763,75.144 82.678,83.841 86.492,87.562C86.981,88.04 87.639,88.303 88.322,88.294C89.005,88.285 89.657,88.005 90.133,87.516C98.669,78.597 104.806,67.336 104.889,50.396C103.983,34.048 97.002,23.261 89.883,15.826C82.239,7.843 65.063,-1.997 43.927,1.977C42.058,2.34 40.707,3.977 40.705,5.881C40.68,22.035 40.627,94.61 40.616,110.654C40.615,111.413 40.259,112.129 39.653,112.588C39.047,113.046 38.262,113.195 37.53,112.989C11.757,105.476 -9.624,82.293 -9.296,50.476C-7.985,30.801 -2.108,20.755 4.863,11.836C5.38,11.18 6.158,10.784 6.992,10.751C7.826,10.719 8.633,11.054 9.199,11.668C12.667,15.423 19.38,22.704 23.895,27.601C24.633,28.401 25.785,28.667 26.798,28.272C27.812,27.876 28.479,26.9 28.48,25.813C28.488,17.411 28.502,3.385 28.508,-3.078C28.51,-5.221 29.832,-7.14 31.833,-7.904C49.741,-14.54 70.747,-12.247 85.989,-3.271C100.551,5.304 116.492,22.894 117.478,50.476C117.216,67.441 113.37,79.868 101.751,93.473C92.111,104.76 76.212,113.68 56.145,114.76C55.26,114.803 54.397,114.482 53.755,113.872C53.114,113.261 52.751,112.414 52.751,111.529C52.744,104.984 52.741,91.096 52.741,91.096Z" style="fill-rule:nonzero;"/>
                <clipPath id="_clip1">
                    <path d="M52.741,91.096C52.741,91.096 52.631,27.988 52.611,16.101C52.61,15.588 52.817,15.097 53.184,14.74C53.552,14.383 54.049,14.19 54.561,14.206C64.595,14.541 72.577,17.596 79.616,24.128C87.896,32.448 91.616,41.801 91.616,53.031C91.605,56.512 90.764,60.263 89.706,63.713C89.307,65.006 88.115,65.889 86.762,65.895C83.031,65.917 75.426,65.951 70.124,65.974C69.171,65.979 68.315,66.559 67.957,67.443C67.6,68.326 67.812,69.339 68.495,70.004C73.763,75.144 82.678,83.841 86.492,87.562C86.981,88.04 87.639,88.303 88.322,88.294C89.005,88.285 89.657,88.005 90.133,87.516C98.669,78.597 104.806,67.336 104.889,50.396C103.983,34.048 97.002,23.261 89.883,15.826C82.239,7.843 65.063,-1.997 43.927,1.977C42.058,2.34 40.707,3.977 40.705,5.881C40.68,22.035 40.627,94.61 40.616,110.654C40.615,111.413 40.259,112.129 39.653,112.588C39.047,113.046 38.262,113.195 37.53,112.989C11.757,105.476 -9.624,82.293 -9.296,50.476C-7.985,30.801 -2.108,20.755 4.863,11.836C5.38,11.18 6.158,10.784 6.992,10.751C7.826,10.719 8.633,11.054 9.199,11.668C12.667,15.423 19.38,22.704 23.895,27.601C24.633,28.401 25.785,28.667 26.798,28.272C27.812,27.876 28.479,26.9 28.48,25.813C28.488,17.411 28.502,3.385 28.508,-3.078C28.51,-5.221 29.832,-7.14 31.833,-7.904C49.741,-14.54 70.747,-12.247 85.989,-3.271C100.551,5.304 116.492,22.894 117.478,50.476C117.216,67.441 113.37,79.868 101.751,93.473C92.111,104.76 76.212,113.68 56.145,114.76C55.26,114.803 54.397,114.482 53.755,113.872C53.114,113.261 52.751,112.414 52.751,111.529C52.744,104.984 52.741,91.096 52.741,91.096Z" clip-rule="nonzero"/>
                </clipPath>
                <g clip-path="url(#_clip1)">
                    <g id="Layer1">
                    </g>
                </g>
            </g>
        </g>
    </g>
</svg>
