<?xml version="1.0" encoding="UTF-8" standalone="no"?>
<!DOCTYPE svg PUBLIC "-//W3C//DTD SVG 1.1//EN" "http://www.w3.org/Graphics/SVG/1.1/DTD/svg11.dtd">
<svg width="100%" height="100%" viewBox="0 0 122 122" version="1.1" xmlns="http://www.w3.org/2000/svg" xmlns:xlink="http://www.w3.org/1999/xlink" xml:space="preserve" xmlns:serif="http://www.serif.com/" style="fill-rule:evenodd;clip-rule:evenodd;stroke-linejoin:round;stroke-miterlimit:2;">
    <g transform="matrix(1,0,0,1,-42.0767,-399.709)">
        <g transform="matrix(1,0,0,1,536.637,-0.0315386)">
            <g transform="matrix(0.961747,0,0,0.961747,-485.617,411.016)">
                <path d="M52.741,91.096C52.741,91.096 52.636,30.613 52.612,16.917C52.611,16.183 52.91,15.481 53.441,14.974C53.971,14.467 54.686,14.199 55.419,14.233C65.052,14.719 72.779,17.784 79.616,24.128C87.896,32.448 91.616,41.801 91.616,53.031C91.605,56.712 90.665,60.695 89.522,64.305C89.22,65.249 88.345,65.891 87.354,65.895C84.127,65.912 76.802,65.945 71.287,65.969C70.141,65.974 69.113,66.672 68.684,67.734C68.255,68.796 68.511,70.012 69.332,70.811C74.949,76.28 83.767,84.864 87.066,88.076C87.793,88.785 88.956,88.774 89.671,88.052C98.472,79.052 104.804,67.675 104.889,50.396C103.983,34.048 97.002,23.261 89.883,15.826C82.141,7.74 64.618,-2.252 43.107,2.138C41.705,2.432 40.701,3.667 40.7,5.099C40.682,19.321 40.629,92.224 40.616,109.924C40.616,110.861 40.174,111.742 39.424,112.303C38.675,112.865 37.705,113.04 36.806,112.777C11.358,105.04 -9.621,81.995 -9.296,50.476C-8.037,31.576 -2.564,21.561 4.045,12.895C4.757,11.974 5.838,11.413 7,11.362C8.163,11.311 9.289,11.775 10.078,12.631C13.659,16.499 19.541,22.879 23.689,27.377C24.46,28.213 25.664,28.491 26.723,28.078C27.782,27.665 28.479,26.645 28.48,25.508C28.488,17.203 28.501,3.723 28.508,-2.783C28.509,-5.114 29.955,-7.199 32.136,-8.019C49.978,-14.514 70.833,-12.197 85.989,-3.271C100.551,5.304 116.492,22.894 117.478,50.476C117.216,67.441 113.37,79.868 101.751,93.473C92.141,104.725 76.312,113.624 56.333,114.75C55.401,114.798 54.489,114.461 53.812,113.818C53.135,113.175 52.751,112.282 52.751,111.348C52.744,104.732 52.741,91.096 52.741,91.096Z" style="fill:white;fill-rule:nonzero;"/>
                <clipPath id="_clip1">
                    <path d="M52.741,91.096C52.741,91.096 52.636,30.613 52.612,16.917C52.611,16.183 52.91,15.481 53.441,14.974C53.971,14.467 54.686,14.199 55.419,14.233C65.052,14.719 72.779,17.784 79.616,24.128C87.896,32.448 91.616,41.801 91.616,53.031C91.605,56.712 90.665,60.695 89.522,64.305C89.22,65.249 88.345,65.891 87.354,65.895C84.127,65.912 76.802,65.945 71.287,65.969C70.141,65.974 69.113,66.672 68.684,67.734C68.255,68.796 68.511,70.012 69.332,70.811C74.949,76.28 83.767,84.864 87.066,88.076C87.793,88.785 88.956,88.774 89.671,88.052C98.472,79.052 104.804,67.675 104.889,50.396C103.983,34.048 97.002,23.261 89.883,15.826C82.141,7.74 64.618,-2.252 43.107,2.138C41.705,2.432 40.701,3.667 40.7,5.099C40.682,19.321 40.629,92.224 40.616,109.924C40.616,110.861 40.174,111.742 39.424,112.303C38.675,112.865 37.705,113.04 36.806,112.777C11.358,105.04 -9.621,81.995 -9.296,50.476C-8.037,31.576 -2.564,21.561 4.045,12.895C4.757,11.974 5.838,11.413 7,11.362C8.163,11.311 9.289,11.775 10.078,12.631C13.659,16.499 19.541,22.879 23.689,27.377C24.46,28.213 25.664,28.491 26.723,28.078C27.782,27.665 28.479,26.645 28.48,25.508C28.488,17.203 28.501,3.723 28.508,-2.783C28.509,-5.114 29.955,-7.199 32.136,-8.019C49.978,-14.514 70.833,-12.197 85.989,-3.271C100.551,5.304 116.492,22.894 117.478,50.476C117.216,67.441 113.37,79.868 101.751,93.473C92.141,104.725 76.312,113.624 56.333,114.75C55.401,114.798 54.489,114.461 53.812,113.818C53.135,113.175 52.751,112.282 52.751,111.348C52.744,104.732 52.741,91.096 52.741,91.096Z" clip-rule="nonzero"/>
                </clipPath>
                <g clip-path="url(#_clip1)">
                    <g id="Layer1">
                    </g>
                </g>
            </g>
        </g>
    </g>
</svg>
