<?xml version="1.0" encoding="UTF-8" standalone="no"?>
<!DOCTYPE svg PUBLIC "-//W3C//DTD SVG 1.1//EN" "http://www.w3.org/Graphics/SVG/1.1/DTD/svg11.dtd">
<svg width="100%" height="100%" viewBox="0 0 131 131" version="1.1" xmlns="http://www.w3.org/2000/svg" xmlns:xlink="http://www.w3.org/1999/xlink" xml:space="preserve" xmlns:serif="http://www.serif.com/" style="fill-rule:evenodd;clip-rule:evenodd;stroke-linecap:round;stroke-linejoin:round;">
    <g transform="matrix(1,0,0,1,-268.603,-403.315)">
        <g transform="matrix(1,0,0,1,536.637,-0.0315386)">
            <g transform="matrix(0.989749,0,0,0.991212,-256.08,417.718)">
                <path d="M52.741,91.096L52.607,14.183C63.569,14.164 72.126,17.178 79.616,24.128C87.896,32.448 91.616,41.801 91.616,53.031C91.603,57.26 90.364,61.887 89,65.89L64.39,66L88.312,89.283L88.312,89.338C97.786,80.137 104.8,68.514 104.889,50.396C103.983,34.048 97.002,23.261 89.883,15.826C81.853,7.44 63.303,-2.997 40.694,2.688L40.613,113.8C13.484,107.298 -9.637,83.553 -9.296,50.476C-7.856,28.863 -0.906,18.87 6.952,9.225L28.474,32.566L28.511,-6.533C47.085,-14.802 69.791,-12.81 85.989,-3.271C100.551,5.304 116.492,22.894 117.478,50.476C117.216,67.441 113.37,79.868 101.751,93.473C91.573,105.39 74.417,114.669 52.745,114.867L52.741,91.096Z" style="fill:none;fill-rule:nonzero;"/>
                <clipPath id="_clip1">
                    <path d="M52.741,91.096L52.607,14.183C63.569,14.164 72.126,17.178 79.616,24.128C87.896,32.448 91.616,41.801 91.616,53.031C91.603,57.26 90.364,61.887 89,65.89L64.39,66L88.312,89.283L88.312,89.338C97.786,80.137 104.8,68.514 104.889,50.396C103.983,34.048 97.002,23.261 89.883,15.826C81.853,7.44 63.303,-2.997 40.694,2.688L40.613,113.8C13.484,107.298 -9.637,83.553 -9.296,50.476C-7.856,28.863 -0.906,18.87 6.952,9.225L28.474,32.566L28.511,-6.533C47.085,-14.802 69.791,-12.81 85.989,-3.271C100.551,5.304 116.492,22.894 117.478,50.476C117.216,67.441 113.37,79.868 101.751,93.473C91.573,105.39 74.417,114.669 52.745,114.867L52.741,91.096Z" clip-rule="nonzero"/>
                </clipPath>
                <g clip-path="url(#_clip1)">
                    <g id="Layer1">
                    </g>
                </g>
                <path d="M52.741,91.096L52.607,14.183C63.569,14.164 72.126,17.178 79.616,24.128C87.896,32.448 91.616,41.801 91.616,53.031C91.603,57.26 90.364,61.887 89,65.89L64.39,66L88.312,89.283L88.312,89.338C97.786,80.137 104.8,68.514 104.889,50.396C103.983,34.048 97.002,23.261 89.883,15.826C81.853,7.44 63.303,-2.997 40.694,2.688L40.613,113.8C13.484,107.298 -9.637,83.553 -9.296,50.476C-7.856,28.863 -0.906,18.87 6.952,9.225L28.474,32.566L28.511,-6.533C47.085,-14.802 69.791,-12.81 85.989,-3.271C100.551,5.304 116.492,22.894 117.478,50.476C117.216,67.441 113.37,79.868 101.751,93.473C91.573,105.39 74.417,114.669 52.745,114.867L52.741,91.096Z" style="fill:none;fill-rule:nonzero;stroke:white;stroke-width:5.55px;"/>
            </g>
        </g>
    </g>
</svg>
