<?xml version="1.0" encoding="UTF-8" standalone="no"?>
<!DOCTYPE svg PUBLIC "-//W3C//DTD SVG 1.1//EN" "http://www.w3.org/Graphics/SVG/1.1/DTD/svg11.dtd">
<svg width="100%" height="100%" viewBox="0 0 768 1920" version="1.1" xmlns="http://www.w3.org/2000/svg" xmlns:xlink="http://www.w3.org/1999/xlink" xml:space="preserve" xmlns:serif="http://www.serif.com/" style="fill-rule:evenodd;clip-rule:evenodd;stroke-linejoin:round;stroke-miterlimit:2;">
    <g transform="matrix(1,0,0,1,-3236.73,619.558)">
        <g transform="matrix(1.92,-2.35132e-16,-2.35132e-16,-1.92,-3684.35,1877.29)">
            <g transform="matrix(1.00547,0,0,1.00047,-19.7246,-0.14106)">
                <rect x="4001.57" y="300.442" width="0.983" height="999.531" style="fill:white;"/>
            </g>
            <g transform="matrix(1.00547,0,0,1.00047,-19.7246,-0.14106)">
                <path d="M3802.66,300.442L3604.73,300.442L3604.73,1299.97L3802.66,1299.97C3934.83,1138.7 3935.18,972.018 3802.66,799.887C3671.53,629.329 3671.78,462.855 3802.66,300.442Z" style="fill:white;"/>
            </g>
            <g transform="matrix(0.502736,0,0,1.00047,1991.51,-0.14106)">
                <path d="M4002.55,300.442L3604.73,300.442C3342.98,462.855 3342.47,629.329 3604.73,799.887C3869.78,972.018 3869.07,1138.7 3604.73,1299.97L4002.55,1299.97L4002.55,300.442Z"/>
            </g>
        </g>
    </g>
</svg>
