<?xml version="1.0" encoding="UTF-8" standalone="no"?>
<!DOCTYPE svg PUBLIC "-//W3C//DTD SVG 1.1//EN" "http://www.w3.org/Graphics/SVG/1.1/DTD/svg11.dtd">
<svg width="100%" height="100%" viewBox="0 0 480 500" version="1.1" xmlns="http://www.w3.org/2000/svg" xmlns:xlink="http://www.w3.org/1999/xlink" xml:space="preserve" xmlns:serif="http://www.serif.com/" style="fill-rule:evenodd;clip-rule:evenodd;stroke-linejoin:round;stroke-miterlimit:2;">
    <g transform="matrix(1,0,0,1,-1859.41,700.477)">
        <g transform="matrix(1.2,2.44929e-17,-2.32683e-16,-0.5,-2466.26,-50.2557)">
            <g transform="matrix(1.00547,0,0,1.00047,-19.7246,-0.14106)">
                <rect x="4001.57" y="300.442" width="0.983" height="999.531" style="fill:white;"/>
            </g>
            <g transform="matrix(1.00547,0,0,1.00047,-19.7246,-0.14106)">
                <path d="M3802.66,300.442L3604.73,300.442L3604.73,1299.97L3802.66,1299.97C3869.11,1130.85 3868.23,964.056 3802.66,799.887C3754.44,647.444 3757.94,481.644 3802.66,300.442Z" style="fill:white;"/>
            </g>
            <g transform="matrix(0.502736,0,0,1.00047,1991.51,-0.14106)">
                <path d="M4002.55,300.442L3604.73,300.442C3493.36,477.528 3499.74,645.234 3604.73,799.887C3724.15,974.143 3716.79,1137.63 3604.73,1299.97L4002.55,1299.97L4002.55,300.442Z"/>
            </g>
        </g>
    </g>
</svg>
