<?xml version="1.0" encoding="UTF-8" standalone="no"?>
<!DOCTYPE svg PUBLIC "-//W3C//DTD SVG 1.1//EN" "http://www.w3.org/Graphics/SVG/1.1/DTD/svg11.dtd">
<svg width="100%" height="100%" viewBox="0 0 768 700" version="1.1" xmlns="http://www.w3.org/2000/svg" xmlns:xlink="http://www.w3.org/1999/xlink" xml:space="preserve" xmlns:serif="http://www.serif.com/" style="fill-rule:evenodd;clip-rule:evenodd;stroke-linejoin:round;stroke-miterlimit:2;">
    <g transform="matrix(1,0,0,1,-1815.14,-436.276)">
        <g transform="matrix(1.92,6.36816e-17,-3.84539e-16,-0.7,-5105.93,1346.59)">
            <g transform="matrix(1.00547,0,0,1.00047,-19.7246,-0.14106)">
                <rect x="4001.57" y="300.442" width="0.983" height="999.531" style="fill:white;"/>
            </g>
            <g transform="matrix(1.00547,0,0,1.00047,-19.7246,-0.14106)">
                <path d="M3802.66,300.442L3604.73,300.442L3604.73,1299.97L3802.66,1299.97C3864.22,1135.47 3865.57,968.356 3802.66,799.887C3762.09,643 3766.75,476.674 3802.66,300.442Z" style="fill:white;"/>
            </g>
            <g transform="matrix(0.502736,0,0,1.00047,1991.51,-0.14106)">
                <path d="M4002.55,300.442L3604.73,300.442C3502.75,481.184 3511.93,649.034 3604.73,799.887C3711.17,965.57 3708.43,1131.7 3604.73,1299.97L4002.55,1299.97L4002.55,300.442Z"/>
            </g>
        </g>
    </g>
</svg>
